<?xml version="1.0" encoding="UTF-8"?>
<!DOCTYPE svg PUBLIC "-//W3C//DTD SVG 1.1//EN" "http://www.w3.org/Graphics/SVG/1.1/DTD/svg11.dtd">
<!-- Creator: CorelDRAW -->
<svg xmlns="http://www.w3.org/2000/svg" xml:space="preserve" width="19.5639mm" height="4.4874mm" style="shape-rendering:geometricPrecision; text-rendering:geometricPrecision; image-rendering:optimizeQuality; fill-rule:evenodd; clip-rule:evenodd"
viewBox="0 0 0.836476 0.191864"
 xmlns:xlink="http://www.w3.org/1999/xlink">
 <defs>
  <style type="text/css">
   <![CDATA[
    .fil0 {fill:white}
    .fil1 {fill:white;fill-rule:nonzero}
   ]]>
  </style>
 </defs>
 <g id="图层_x0020_18">
  <metadata id="CorelCorpID_0Corel-Layer"/>
  <g id="_708318512">
   <g>
    <g>
     <path id="_708319544" class="fil0" d="M0.162956 0.163901c-0.0172777,0.0172735 -0.0411399,0.0279625 -0.067499,0.0279625 -0.0527097,0 -0.0954572,-0.0427475 -0.0954572,-0.0954615 0,-0.0263548 0.0106847,-0.050217 0.0279625,-0.0674947l0.134994 0.134994z"/>
     <polygon id="_708319640" class="fil0" points="-0,0.000944909 0.0954572,0.0964021 -0,0.0964021 "/>
    </g>
    <g>
     <polygon id="_708319568" class="fil0" points="0.104316,0.0954615 0.199774,0.190919 0.199774,0.0954615 "/>
     <path id="_708318920" class="fil0" d="M0.0368215 0.0279625c0.0172735,-0.0172735 0.0411356,-0.0279625 0.0674947,-0.0279625 0.0527097,0 0.0954572,0.0427475 0.0954572,0.0954615 0,0.0263548 -0.0106847,0.050217 -0.0279625,0.0674947l-0.134989 -0.134994z"/>
    </g>
   </g>
   <g>
    <path id="_708318104" class="fil0" d="M0.356312 0.0661223c-0.000188127,-0.00218484 -0.000551553,-0.00428843 -0.00109456,-0.00631507 -0.000538727,-0.00202236 -0.00125703,-0.00396776 -0.00214636,-0.00583621l0 0c-0.000902153,-0.00185989 -0.00193685,-0.00360861 -0.00311264,-0.00524617 -0.00118007,-0.00163756 -0.00249696,-0.00316823 -0.00396776,-0.00457918 -0.00146653,-0.00141095 -0.00303996,-0.00267226 -0.004716,-0.00378819 -0.00168031,-0.00112021 -0.00346752,-0.00209077 -0.00535306,-0.00290741 -0.00189837,-0.000820917 -0.00386943,-0.00146226 -0.00590889,-0.00191547 -0.00203947,-0.00045749 -0.00415589,-0.000731129 -0.006345,-0.000816641 -0.00232593,-8.12366e-005 -0.00457918,3.42049e-005 -0.00676401,0.0003506 -0.00217628,0.000316395 -0.00428416,0.000838019 -0.00631935,0.0015606l-4.27561e-006 0c-0.00204374,0.000714027 -0.00396776,0.00160763 -0.00577207,0.00267226 -0.00180431,0.00106463 -0.00350172,0.00230883 -0.00508797,0.00371978l0 -4.27561e-006c-0.00158197,0.0014195 -0.00300575,0.00298437 -0.00427133,0.00469034 -0.00126986,0.00171024 -0.00238151,0.00357013 -0.0033478,0.00557967l4.27561e-006 0c-0.000953461,0.00200098 -0.00171024,0.00412169 -0.00227035,0.00636638 -0.000555829,0.00224469 -0.000919256,0.00461766 -0.00108173,0.00711034 -9.8339e-005,0.00187699 -4.27561e-005,0.0037155 0.000171024,0.00551553 0.00021378,0.00180858 0.000585758,0.00357441 0.00110311,0.00529748l4.27561e-006 0c0.000530175,0.00173162 0.00118862,0.00339483 0.00197106,0.00498963 0.000782436,0.00159053 0.00169314,0.00311692 0.00272784,0.00458345l0 0c0.0010347,0.00146653 0.00217201,0.002839 0.00340766,0.00412169 0.00123565,0.00127841 0.00256964,0.0024713 0.00400197,0.00357868 0.00144088,0.00109883 0.00294589,0.0020865 0.00451932,0.00295017 0.0015777,0.000859397 0.00322381,0.00160763 0.0049426,0.00223187l0 0c0.00171024,0.000637066 0.00346324,0.00112876 0.005259,0.00147508 0.00179576,0.0003506 0.00363854,0.000555829 0.00551553,0.000615688 0.00193685,4.70317e-005 0.00382239,-6.41341e-005 0.00566518,-0.000337773 0.00184279,-0.000269363 0.00363854,-0.000696924 0.00539154,-0.00128696 0.00175727,-0.000585758 0.00343759,-0.00130406 0.00504522,-0.00214636 0.00160763,-0.000842295 0.0031383,-0.00181713 0.00459628,-0.00292452l-4.27561e-006 0c0.00145371,-0.00110738 0.00280907,-0.00232166 0.00406183,-0.00363854 0.0012442,-0.00130834 0.00239434,-0.00272356 0.00343759,-0.00423713 0.00103042,-0.00150501 0.00193257,-0.00309126 0.00270646,-0.00475448 0.000778161,-0.00166749 0.00142805,-0.00341621 0.00194113,-0.00523334l0 0c0.000504522,-0.00181713 0.000855122,-0.00368985 0.0010347,-0.00560532 0.000183851,-0.00189409 0.000205229,-0.00384377 5.98585e-005,-0.00583621zm-0.0772902 0.000722578c8.97878e-005,-0.00234303 0.0003506,-0.00462193 0.000782436,-0.00683242 0.000436112,-0.00221476 0.00104325,-0.00436967 0.00183424,-0.00646472l0 0c0.000782436,-0.00209077 0.00171452,-0.00409603 0.0027877,-0.00599868 0.00107745,-0.00191547 0.00230028,-0.00374543 0.00366847,-0.00548133 0.00136819,-0.0017359 0.00285183,-0.0033649 0.00445518,-0.00486992 0.00158197,-0.00148791 0.00328367,-0.00286038 0.00509225,-0.00410458 0.00181713,-0.0012613 0.00371978,-0.00237724 0.00570794,-0.00334353 0.00198388,-0.000966287 0.00405755,-0.0017872 0.00621673,-0.00245847 0.00215918,-0.00067127 0.00436967,-0.00116724 0.00662719,-0.00148364 0.00225752,-0.000316395 0.0045749,-0.00045749 0.00693931,-0.00041901l4.27561e-006 0c0.00228317,4.27561e-005 0.00451077,0.00024371 0.0066785,0.000602861 0.00216346,0.000354875 0.00426706,0.000867948 0.00630652,0.00153494 0.00204374,0.000666995 0.00400624,0.00147508 0.00588751,0.00241144 0.00188127,0.000936358 0.00368985,0.00201809 0.0054172,0.00322808l0 0c0.00171452,0.00120145 0.00332642,0.00251833 0.00483571,0.00395066 0.00151357,0.00143233 0.00292024,0.00297582 0.00422003,0.00462621l0 0c0.00130834,0.00165466 0.00248413,0.00339056 0.0035231,0.00521197 0.00104325,0.00182141 0.00195395,0.00373688 0.00273211,0.00574214 0.000786712,0.00199671 0.0014195,0.00405755 0.00189409,0.00617398 0.000478868,0.00212498 0.000803814,0.00430981 0.000979114,0.00655451l0 4.27561e-006c0.000162473,0.00250978 0.000123993,0.00497253 -0.000115441,0.0073797 -0.000239434,0.00239862 -0.000684097,0.00474165 -0.00132971,0.00702055 -0.000641341,0.00228317 -0.00145371,0.00447656 -0.00242855,0.00657161l0 0c-0.000979114,0.00209505 -0.00212925,0.00410031 -0.00344614,0.00601578 -0.00131689,0.00191975 -0.00276632,0.00371123 -0.00434402,0.00537016 -0.00158197,0.00166321 -0.00329222,0.00319815 -0.00513073,0.00460055 -0.00184706,0.00140668 -0.00379674,0.00265515 -0.00583621,0.00373688 -0.00204374,0.001086 -0.00418582,0.00201381 -0.00641769,0.00277487 -0.00224042,0.000761058 -0.00454497,0.00132544 -0.00691366,0.00169742 -0.00236869,0.000371978 -0.00479723,0.000551553 -0.00728136,0.000534451l-4.27561e-006 0c-0.00241999,-4.70317e-005 -0.00478441,-0.000273639 -0.00708896,-0.000675546 -0.0023131,-0.000406183 -0.00456635,-0.000991941 -0.00675546,-0.00175727 -0.00218911,-0.000765334 -0.00428843,-0.00168459 -0.0062937,-0.00274922 -0.00201809,-0.0010689 -0.00394211,-0.00228745 -0.00577207,-0.00365137l-4.27561e-006 0c-0.00182141,-0.00136819 -0.0035231,-0.00286038 -0.00510508,-0.00446373 -0.00157342,-0.00160335 -0.00302713,-0.00331787 -0.00434829,-0.00514356l0 0c-0.00132971,-0.00184706 -0.00250123,-0.00377536 -0.00351455,-0.00579345l0 0c-0.00100904,-0.00200954 -0.00186417,-0.00410886 -0.00255681,-0.00628514 -0.000705475,-0.00218484 -0.00121427,-0.00442953 -0.00153067,-0.00672126 -0.000312119,-0.002296 -0.000436112,-0.00464331 -0.000371978,-0.0070462l0 0z"/>
    <path id="_708318464" class="fil1" d="M0.607239 0.0843492c0,0.0085897 -0.00292024,0.0157642 -0.00875645,0.0215191 -0.00584048,0.00575497 -0.0130534,0.00863245 -0.0216431,0.00863245 -0.0082562,0 -0.0153238,-0.00294162 -0.0212027,-0.00882058 -0.00587896,-0.00587896 -0.00882058,-0.0129465 -0.00882058,-0.0212027 0,-0.00842295 0.00289886,-0.015576 0.00869659,-0.021455 0.00579345,-0.00587896 0.0129038,-0.00882058 0.0213267,-0.00882058 0.00850846,0 0.0157,0.00289886 0.021579,0.00869659 0.00587896,0.00579345 0.00882058,0.0129465 0.00882058,0.0214507zm-0.0547919 0.000128268c0,0.00666995 0.0023131,0.0124677 0.00694359,0.0173889 0.00462621,0.00491695 0.010317,0.0073797 0.0170725,0.0073797 0.00708896,0 0.0130534,-0.00237724 0.0178891,-0.00713171 0.00483999,-0.00475448 0.00725571,-0.0106334 0.00725571,-0.0176369 0,-0.00717447 -0.00237724,-0.0131347 -0.00712744,-0.0178891 -0.00475448,-0.00475448 -0.0107617,-0.00713171 -0.0180174,-0.00713171 -0.00675546,0 -0.0124463,0.00247985 -0.0170725,0.00744383 -0.00463048,0.00495971 -0.00694359,0.0108216 -0.00694359,0.017577zm0.0749129 0.0287706l-0.0056267 0 0 -0.103205 0.0056267 0 0 0.103205zm0.0749172 -0.0288988c0,0.0085897 -0.00292024,0.0157642 -0.00875645,0.0215191 -0.00584048,0.00575497 -0.0130534,0.00863245 -0.0216431,0.00863245 -0.0082562,0 -0.0153238,-0.00294162 -0.0212027,-0.00882058 -0.00587896,-0.00587896 -0.00882058,-0.0129465 -0.00882058,-0.0212027 0,-0.00842295 0.00289886,-0.015576 0.00869659,-0.021455 0.00579345,-0.00587896 0.0129038,-0.00882058 0.0213267,-0.00882058 0.00850846,0 0.0157,0.00289886 0.021579,0.00869659 0.00587896,0.00579345 0.00882058,0.0129465 0.00882058,0.0214507zm-0.0547919 0.000128268c0,0.00666995 0.0023131,0.0124677 0.00694359,0.0173889 0.00462621,0.00491695 0.010317,0.0073797 0.0170725,0.0073797 0.00708896,0 0.0130534,-0.00237724 0.0178891,-0.00713171 0.00483999,-0.00475448 0.00725571,-0.0106334 0.00725571,-0.0176369 0,-0.00717447 -0.00237724,-0.0131347 -0.00712744,-0.0178891 -0.00475448,-0.00475448 -0.0107617,-0.00713171 -0.0180174,-0.00713171 -0.00675546,0 -0.0124463,0.00247985 -0.0170725,0.00744383 -0.00463048,0.00495971 -0.00694359,0.0108216 -0.00694359,0.017577zm0.0701627 -0.000500246c0,0.00692221 0.00208222,0.012861 0.00625521,0.017825 0.00416872,0.00495971 0.00967143,0.00744383 0.0165124,0.00744383 0.00700345,0 0.0125489,-0.00250123 0.0166364,-0.00750797 0.00409176,-0.00500246 0.0061355,-0.0111337 0.0061355,-0.0183894 0,-0.0068367 -0.00210787,-0.0125275 -0.00632362,-0.0170725 -0.00421147,-0.00454497 -0.00982107,-0.00681959 -0.0168245,-0.00681959 -0.00642196,0 -0.0117579,0.00245847 -0.0160122,0.0073797 -0.00425423,0.00492122 -0.00637921,0.0106334 -0.00637921,0.0171409zm0.0507899 0.0265173c0,0.00725571 -0.000436112,0.0124292 -0.00131261,0.0155119 -0.0008765,0.00308699 -0.00250123,0.00627659 -0.00487847,0.00957309 -0.00237724,0.00329222 -0.00552836,0.00587896 -0.00944909,0.00775595 -0.00392073,0.00187272 -0.00829896,0.00281335 -0.0131347,0.00281335 -0.0079227,0 -0.0146568,-0.00221049 -0.0202022,-0.00663147 -0.00554546,-0.00442098 -0.00832033,-0.0104667 -0.00832033,-0.0181371l0.00563098 0c0,0.00583621 0.00221049,0.0105479 0.00663147,0.0141352 0.0044167,0.00358724 0.00967143,0.00537871 0.0157599,0.00537871 0.00383522,0 0.00735832,-0.000688373 0.0105693,-0.00206512 0.00321098,-0.00137675 0.00584048,-0.00356586 0.00788422,-0.00656733 0.00204374,-0.00300148 0.00342049,-0.00623384 0.00413024,-0.0096928 0.000709751,-0.00346324 0.00106463,-0.00752935 0.00106463,-0.0121983l0 -0.00713171c-0.00275349,0.003506 -0.0061355,0.00625521 -0.0101375,0.0082562 -0.00400197,0.00200526 -0.00821344,0.00300575 -0.0126344,0.00300575 -0.00817496,0 -0.0148877,-0.002963 -0.0201424,-0.00888471 -0.00525472,-0.00592172 -0.00787995,-0.0130492 -0.00787995,-0.0213909 0,-0.00850418 0.00268936,-0.0156359 0.00806807,-0.0213909 0.00537871,-0.00575497 0.0122795,-0.00863245 0.0207025,-0.00863245 0.00458773,0 0.00867521,0.000940634 0.0122624,0.00281763 0.00358296,0.00187272 0.00675974,0.00469034 0.00950895,0.00844005l0.000252261 -0.0100049 0.0056267 0 0 0.0550399zm0.00961584 -0.0550399l0.00587896 0 0.0246018 0.0523719 0.0221861 -0.0523719 0.00575497 0 -0.0387798 0.0915707 -0.00575497 0 0.0138829 -0.0327768 -0.0277701 -0.0587939z"/>
    <path id="_708317048" class="fil1" d="M0.45094 0.111486l-0.0594053 -0.0600338 0 0.0599184 -0.0120871 0 0 -0.0863502 0.0594096 0.0594737 0 -0.0581269 0.0120829 0 0 0.0851188zm0.0857772 -0.0848965l-0.0718516 0 -3.84805e-005 0.0105223 0.0305449 0 0 0.0743742 0.0120829 0 0 -0.0743357 0.0292665 -3.84805e-005 -4.27561e-006 -0.0105223z"/>
   </g>
   <path id="_708318608" class="fil1" d="M0.281147 0.168044c0,-0.00537871 0.0014366,-0.00958591 0.00432692,-0.0126259 0.00289031,-0.00303568 0.00661437,-0.00456207 0.011185,-0.00456207 0.00298437,0 0.00568656,0.000718302 0.00808517,0.00214208 0.00239434,0.00143233 0.00422858,0.00342476 0.00548988,0.00598158 0.00125703,0.00254826 0.00188554,0.0054514 0.00188554,0.00868804 0,0.00328794 -0.000658444,0.00622956 -0.00198388,0.0088163 -0.00132971,0.00259529 -0.00320671,0.00455352 -0.00563525,0.00588751 -0.0024371,0.00133827 -0.00505377,0.00200098 -0.00786712,0.00200098 -0.00305278,0 -0.00577635,-0.000731129 -0.00817496,-0.00221049 -0.00240289,-0.00147081 -0.00422003,-0.00348462 -0.00545995,-0.00603288 -0.00123565,-0.00254399 -0.00185134,-0.0052419 -0.00185134,-0.00808517zm0.0044167 6.84097e-005c0,0.00390791 0.00104752,0.00697352 0.00314685,0.00922249 0.0021036,0.00224897 0.0047331,0.00337345 0.00790132,0.00337345 0.00322808,0 0.00588324,-0.00113304 0.00796546,-0.00340338 0.00208222,-0.00227035 0.00312975,-0.00548988 0.00312975,-0.0096586 0,-0.00263377 -0.000453214,-0.00493405 -0.00134254,-0.00690083 -0.000889326,-0.00197106 -0.00219766,-0.00349317 -0.00390791,-0.00457918 -0.00171879,-0.00107745 -0.00364282,-0.00162046 -0.00577635,-0.00162046 -0.00303996,0 -0.00564808,0.00103897 -0.00783719,0.00312975 -0.00218484,0.00208222 -0.00327939,0.00556257 -0.00327939,0.0104368zm0.0345512 0.0157086l0 -0.032392 0.00439533 0 0.0170169 0.0254313 0 -0.0254313 0.00410886 0 0 0.032392 -0.00439533 0 -0.0170169 -0.0254527 0 0.0254527 -0.00410886 0zm0.0434829 0l0 -0.0285653 -0.0106719 0 0 -0.00382667 0.0256708 0 0 0.00382667 -0.0107189 0 0 0.0285653 -0.00427988 0zm0.0572589 -0.0319901c-0.00176583,-0.000119717 -0.00411741,-0.000183851 -0.00706758,-0.000183851l-0.0261624 0 0 0.0326999 0.028809 0c0.00236014,0 0.00424568,-5.98585e-005 0.00565663,-0.000171024l0 0.00318105c-0.00153067,-0.000119717 -0.00352738,-0.000179576 -0.00600295,-0.000179576l-0.0321697 0c0.000119717,-0.00283045 0.000171024,-0.00488702 0.000171024,-0.00618253l0 -0.0268722c0,-0.00199671 -5.13073e-005,-0.00382239 -0.000171024,-0.00547705l0.036937 0 0 0.00318533zm-0.0252731 0.004592c0.00412596,0.00282618 0.00771747,0.00559677 0.0107874,0.00831178 0.00270646,-0.00318533 0.00471172,-0.00636638 0.00600295,-0.00954743 0.00129551,0.000820917 0.00282618,0.00165038 0.00459628,0.0024713 -0.00129551,0.000829468 -0.00241999,0.0019454 -0.00336063,0.0033649 -0.000944909,0.00141095 -0.00235158,0.00341621 -0.00423713,0.00600295 0.00400197,0.00330505 0.00724716,0.00654596 0.00971846,0.00972273 -0.00141095,0.000940634 -0.00241144,0.0019454 -0.00300148,0.00300575 -0.00188554,-0.00282618 -0.00500674,-0.00607136 -0.00937213,-0.00971846 -0.00176583,0.00199671 -0.00356158,0.00383094 -0.00538727,0.00547278 -0.00182996,0.00165466 -0.00409176,0.00347607 -0.00680677,0.00548561 -0.00105608,-0.00106463 -0.00224042,-0.00194968 -0.0035402,-0.00265515 0.00236014,-0.00105608 0.00448084,-0.00232593 0.00636638,-0.00379674 0.00188554,-0.00147508 0.00412596,-0.00379674 0.00672126,-0.00698207 -0.00295017,-0.00271501 -0.00660154,-0.00542147 -0.0109584,-0.00812793 0.00117579,-0.000944909 0.00199671,-0.0019454 0.0024713,-0.00301003zm0.0587853 -0.00123565c0,-0.0035402 -5.98585e-005,-0.0061868 -0.0001753,-0.00795691 0.000825192,0.000239434 0.0021207,0.000474592 0.00388653,0.000709751 -0.000115441,0.000829468 -0.000205229,0.00182568 -0.000265088,0.00300575 -5.98585e-005,0.00118007 -8.97878e-005,0.00258674 -8.97878e-005,0.0042414l0.00990231 0c-0.000119717,0.00176155 -0.0001753,0.00371123 -0.0001753,0.00583621l0 0.0072386c0.00200098,0 0.00365137,-5.13073e-005 0.00494688,-0.000171024l0 0.00300148c-0.0017701,-0.000115441 -0.00336063,-0.0001753 -0.00477158,-0.0001753l-0.00831178 0c0.000829468,0.00188554 0.00180431,0.0036813 0.00292024,0.00539154 0.00112448,0.00170597 0.00256109,0.00338628 0.00432692,0.00503667 0.00177438,0.00165466 0.0038908,0.00300148 0.00636638,0.0040661 -0.000944909,0.000709751 -0.00188554,0.00170597 -0.00283045,0.00300148 -0.00106035,-0.000585758 -0.00244137,-0.00159053 -0.00415162,-0.00300148 -0.00170597,-0.00141523 -0.00332642,-0.00315112 -0.00485709,-0.00521197 -0.00153067,-0.00206512 -0.00289031,-0.00439533 -0.0040661,-0.00698207 -0.00106463,0.00306134 -0.00230028,0.00550698 -0.00371123,0.00732839 -0.00141523,0.00183424 -0.00274494,0.00330505 -0.00398059,0.00442098 -0.00123565,0.00112448 -0.00280052,0.00233021 -0.00468607,0.00362999 -0.000940634,-0.00106463 -0.00182141,-0.00194968 -0.0026466,-0.00265515 0.00141095,-0.000825192 0.00288176,-0.00182568 0.00441243,-0.00300148 0.00153922,-0.00118007 0.00286038,-0.00244565 0.00398059,-0.00380102 0.00112021,-0.00135964 0.00197961,-0.00277059 0.00256536,-0.00424568 0.000590034,-0.00147081 0.000944909,-0.00280052 0.00105608,-0.00397632l-0.00423713 0c-0.00188554,0 -0.00377109,5.98585e-005 -0.00565663,0.0001753l0 -0.00300148c0.00188554,0.000119717 0.00377109,0.000171024 0.00565663,0.000171024l0.004592 0 0 -0.0104197 -0.0019454 0c-0.00176583,0 -0.00359151,0.000111166 -0.00547705,0.0003506l0 -0.00318105c0.00176583,0.000115441 0.00359151,0.0001753 0.00547705,0.0001753l0.0019454 0zm-0.0171409 0.0038908l0 -0.00530175c0,-0.00188554 -5.98585e-005,-0.00377109 -0.000179576,-0.00565663l0.00353593 0c-0.000119717,0.00176583 -0.0001753,0.00365137 -0.0001753,0.00565663l0 0.00530175 0.00141095 0c0.000820917,0 0.00218056,-5.98585e-005 0.0040661,-0.000179576l0 0.00300575c-0.00188554,-0.000119717 -0.00324519,-0.000179576 -0.0040661,-0.000179576l-0.00141095 0 0 0.0134382 0.00635783 -0.00212498 0 0.00300575c-0.0021207,0.000705475 -0.00456207,0.0015948 -0.00732839,0.00265088 -0.00277487,0.00106035 -0.0051008,0.00200526 -0.00698634,0.00282618 -0.000705475,-0.00176583 -0.00129551,-0.00306134 -0.00176155,-0.00388225 0.00128696,-0.00024371 0.00250123,-0.000508797 0.00361716,-0.000799539 0.00111593,-0.000295017 0.00209077,-0.000560105 0.00292024,-0.000795263l0 -0.014319 -0.000709751 0c-0.00176583,0 -0.00341621,5.98585e-005 -0.00494688,0.000179576l0 -0.00300575c0.00153067,0.000119717 0.00312119,0.000179576 0.00477158,0.000179576l0.000885051 0zm0.0268636 0.00918401l0 -0.0104197 -0.00636638 0 0 0.0104197 0.00636638 0zm0.0250251 0.0152041c0.00200954,-0.00153067 0.00374116,-0.00309126 0.00521197,-0.00468179 0.00148364,-0.00159053 0.00274922,-0.003506 0.00380529,-0.00574642 -0.00211643,-0.00329649 -0.00442098,-0.00612695 -0.00689656,-0.00848708 0.00117579,-0.000466041 0.00224042,-0.00111593 0.00318105,-0.0019454 0.0017701,0.00188554 0.00360434,0.00407465 0.00548988,0.00654596 0.0007012,-0.00318105 0.00105608,-0.00654596 0.00105608,-0.0100733l-0.00512218 0c-0.00188982,0 -0.00365992,5.98585e-005 -0.00531458,0.000171024l0 -0.00335208c0.00212925,0.000111166 0.0038908,0.000171024 0.00531458,0.000171024l0.0067127 0c0.00129551,0 0.00295017,-5.98585e-005 0.00494688,-0.000171024l0 0.00335208c-0.000944909,-0.000111166 -0.0021207,-0.000171024 -0.00353165,-0.000171024 -0.000119717,0.00482716 -0.000705475,0.00918401 -0.0017701,0.0130748 0.00188554,0.00236014 0.00377109,0.00494688 0.00565663,0.00777733 -0.00105608,0.000585758 -0.00218056,0.00153067 -0.00335635,0.00282618 -0.00129551,-0.00270646 -0.00259529,-0.00500674 -0.0038908,-0.00689228 -0.00117579,0.00212925 -0.00238579,0.00398059 -0.00362144,0.00557539 -0.00123565,0.00159053 -0.00256964,0.00309126 -0.00397632,0.00450222 -0.000829468,-0.00118007 -0.00212925,-0.00200098 -0.00389508,-0.00247558zm0.0321782 -0.036766c-0.000119717,0.00153067 -0.000179576,0.00330505 -0.000179576,0.00530175l0 0.0316438c0,0.00188554 -0.000440388,0.00306561 -0.00132971,0.00353165 -0.000880775,0.000474592 -0.00267653,0.000940634 -0.00538299,0.0014195 -0.00024371,-0.00118007 -0.000889326,-0.00265515 -0.0019454,-0.00442098 0.00211643,0.000235158 0.00355731,0.000235158 0.00432692,0 0.000761058,-0.000235158 0.00114586,-0.000769609 0.00114586,-0.00159053l0 -0.0302285c0,-0.00224042 -5.98585e-005,-0.00412596 -0.000171024,-0.00565663l0.00353593 0zm-0.00760203 0.00548561c-0.000119717,0.00199671 -0.000179576,0.00371123 -0.000179576,0.0051179l0 0.0136135c0,0.00224042 5.98585e-005,0.00471172 0.000179576,0.00742246l-0.0038908 0c0.000119717,-0.00271074 0.000179576,-0.00518204 0.000179576,-0.00742246l0 -0.0134297c0,-0.00200526 -5.98585e-005,-0.00377109 -0.000179576,-0.00530175l0.0038908 0zm-0.03323 0.032516c0.00128696,-0.00153067 0.00244137,-0.00373688 0.00344614,-0.00662719 0.000991941,-0.00289031 0.00179148,-0.0056267 0.00238151,-0.00822199 0.00141095,0.00106463 0.00259529,0.00171452 0.00353593,0.0019454 -0.00188554,0.00460055 -0.00312119,0.00792698 -0.00371123,0.00998782 -0.00059431,0.00206512 -0.00106035,0.00386087 -0.00141523,0.00539154 -0.00129978,-0.00105608 -0.00270646,-0.00188554 -0.00423713,-0.00247558zm0.00440815 -0.0371166c0.00212925,0.00141523 0.00407465,0.00294589 0.00584048,0.00460055 -0.000825192,0.0007012 -0.00165466,0.00164183 -0.00247558,0.00282618 -0.00153067,-0.00153067 -0.0033649,-0.00312119 -0.00548133,-0.00477158 0.000829468,-0.000944909 0.00153067,-0.00182568 0.00211643,-0.00265515zm0.0148535 -0.000885051c0.000829468,0.00247558 0.00153067,0.00465614 0.0021207,0.00654168 -0.00129123,0.000239434 -0.00252688,0.000645617 -0.00371123,0.00123565 -0.000466041,-0.00224042 -0.00111593,-0.00447229 -0.0019454,-0.0067127 0.00106463,-0.000239434 0.00224042,-0.000585758 0.00353593,-0.00106463zm-0.016615 0.0130791c0.00165038,0.000940634 0.00371123,0.00224042 0.00618253,0.0038908 -0.000820917,0.000820917 -0.00159053,0.00182568 -0.00229173,0.00301003 -0.0014195,-0.0014195 -0.00341621,-0.00277487 -0.0060115,-0.00407465 0.000820917,-0.00105608 0.00153067,-0.00199671 0.0021207,-0.00282618zm0.0807107 0.00583621c-0.000239434,0.00117579 -0.000354875,0.00253544 -0.000354875,0.0040661l0 0.00494688c0,0.00141523 5.98585e-005,0.00288604 0.0001753,0.0044167l-0.00335635 0 0 -0.0105992 -0.0187357 0 0 0.011309 -0.0037155 0c0.000239434,-0.00176155 0.000354875,-0.00330077 0.000354875,-0.004592l0 -0.00495543c0,-0.00141095 -5.98585e-005,-0.00294162 -0.0001753,-0.004592l0.0258076 0zm-0.00902153 -0.0190863c0.00129978,0.000466041 0.00265515,0.000880775 0.0040661,0.00123565 -0.000585758,0.000466041 -0.00135109,0.0019454 -0.00229173,0.00442098l0.00901298 0c0.00165038,0 0.00353593,-5.98585e-005 0.00565663,-0.000183851l0 0.0033649c-0.0021207,-0.000239434 -0.00400624,-0.000354875 -0.00565663,-0.000354875l-0.0100776 0c-0.000940634,0.00224042 -0.00205657,0.00436112 -0.00335635,0.00635783 -0.00129551,-0.000590034 -0.00241999,-0.000996217 -0.00336063,-0.00123565 0.00141523,-0.00176583 0.00262095,-0.00382239 0.00362572,-0.0061868 0.00100477,-0.00235158 0.00179576,-0.00483144 0.00238151,-0.00741818zm0.00123993 0.0291639c-0.000346324,0.00105608 -0.000470317,0.00235158 -0.000346324,0.00388225l0 0.00247985c0,0.00153067 0.000820917,0.00235586 0.0024713,0.00247558l0.0065374 0c0.00176583,-0.000119717 0.00289031,-0.000709751 0.00335635,-0.00177438 0.000474592,-0.00105608 0.000649892,-0.00224042 0.000530175,-0.00352738 0.00106035,0.000820917 0.00236014,0.00147081 0.0038908,0.00193685 -0.000590034,0.00236014 -0.00132971,0.00395066 -0.00221049,0.00477585 -0.000880775,0.000829468 -0.00209077,0.00123565 -0.00362144,0.00123565l-0.00954743 0c-0.00306134,0 -0.004592,-0.00111593 -0.004592,-0.00335635l0 -0.00477585c-0.000119717,-0.00129551 -0.000239434,-0.00241144 -0.000354875,-0.00335208l0.00388653 0zm-0.00353165 -0.00283045c-0.000940634,0.000590034 -0.00159053,0.00165038 -0.0019454,0.00318105 -0.000354875,0.00153494 -0.00115441,0.00309554 -0.00239006,0.00468607 -0.00123565,0.00159053 -0.00294162,0.00306134 -0.00512218,0.0044167 -0.00217628,0.00135109 -0.00539154,0.00244565 -0.00963722,0.00326656 -0.000466041,-0.00117579 -0.00135109,-0.00229173 -0.0026466,-0.00335635 0.00423713,-0.000466041 0.00751224,-0.00120572 0.00981252,-0.00221049 0.00229173,-0.00100049 0.00411741,-0.00262095 0.00547278,-0.00485282 0.00135964,-0.00224042 0.00209932,-0.00466041 0.00221049,-0.00724716 0.00129978,0.0007012 0.00271501,0.00140668 0.00424568,0.00211643zm-0.00565663 -0.0254527c-0.000239434,0.00153067 -0.000354875,0.00329649 -0.000354875,0.00530175l0 0.00530175c0,0.00165038 0.000115441,0.00347607 0.000354875,0.00548133l-0.0037155 0c0.000119717,-0.00200526 0.000179576,-0.00383094 0.000179576,-0.00548133l0 -0.00530175c0,-0.00176583 -5.98585e-005,-0.00353593 -0.000179576,-0.00530175l0.0037155 0zm-0.00866238 0.00105608c-0.000235158,0.00153922 -0.000354875,0.00312975 -0.000354875,0.00477585l0 0.00495115c0,0.00141095 0.000119717,0.00300148 0.000354875,0.0047673l-0.00371123 0c0.000119717,-0.00176583 0.000171024,-0.00335635 0.000171024,-0.0047673l0 -0.00495115c0,-0.00224042 -5.13073e-005,-0.00383094 -0.000171024,-0.00477585l0.00371123 0zm0.0288133 0.0130834c-0.000829468,0.000944909 -0.00159053,0.00182568 -0.00230028,0.00265088 -0.00224042,-0.00200098 -0.0045407,-0.00388653 -0.00689228,-0.00565663 0.000590034,-0.0007012 0.00123565,-0.00147081 0.0019454,-0.002296 0.00235586,0.00153067 0.0047673,0.00329649 0.00724716,0.00530175zm0.0135366 0.00865811c0.00235158,0 0.00456207,-0.000171024 0.00662719,-0.0005259 0.00206084,-0.000354875 0.00388653,-0.000820917 0.00547705,-0.0014195 0.00159053,-0.000585758 0.00309126,-0.00158197 0.00451077,-0.00300148l-0.00777733 0c-0.00129551,0 -0.00359579,5.98585e-005 -0.00689228,0.0001753l0 -0.00300148c0.00329649,0.000119717 0.00559677,0.000171024 0.00689228,0.000171024l0.00865811 0c0.000354875,-0.00105608 0.000474592,-0.00235158 0.000354875,-0.00388225 0.00153067,0.000235158 0.00312119,0.000466041 0.00477585,0.000709751 -0.000709751,0.0007012 -0.00112448,0.00176155 -0.00123993,0.0031725l0.00794836 0c-0.000820917,-0.000820917 -0.00164183,-0.00153067 -0.0024713,-0.00211643l0.0024713 -0.00176583c0.000944909,0.000709751 0.00183424,0.00153067 0.00265515,0.0024713 -0.000709751,0.000354875 -0.00141095,0.000825192 -0.00211643,0.00141095l0.0026466 0c0.00259102,0 0.00495543,-5.13073e-005 0.00707186,-0.000171024l0 0.00300148c-0.00200526,-0.000115441 -0.00435684,-0.0001753 -0.00707186,-0.0001753l-0.00883768 0c0.00223614,0.00188554 0.00509652,0.00309126 0.00857259,0.00362999 0.00347607,0.0005259 0.00645617,0.00067127 0.00892747,0.000436112 -0.000940634,0.00117579 -0.00153067,0.0024713 -0.0017701,0.0038908 -0.00294162,-0.000239434 -0.00544712,-0.000555829 -0.00751224,-0.000970563 -0.00205657,-0.000414734 -0.00394211,-0.0010347 -0.00565663,-0.00185561 -0.00170169,-0.000829468 -0.0036813,-0.00242427 -0.00591744,-0.00477585 -0.0021207,0.00270646 -0.00488702,0.00462193 -0.00830323,0.00574642 -0.00342476,0.00111593 -0.00684097,0.00191547 -0.0102572,0.00238579 -0.000354875,-0.00141095 -0.000944909,-0.00259529 -0.00176583,-0.0035402zm0.0335806 0.0176796l0 -0.00335635 -0.00848281 0 0 0.00318105 -0.00300148 0c0.000115441,-0.00259529 0.0001753,-0.00500674 0.0001753,-0.00724716 0,-0.00236014 -5.98585e-005,-0.00460055 -0.0001753,-0.00671698l0.0146696 0c-0.000119717,0.00141523 -0.000183851,0.00383094 -0.000183851,0.00724716 0,0.00329222 6.41341e-005,0.0055925 0.000183851,0.00689228l-0.00318533 0zm-0.0185561 -0.0001753l0 -0.00318105 -0.00760203 0 0 0.00335635 -0.00318533 0c0.000123993,-0.00200526 0.000183851,-0.00448084 0.000183851,-0.00742246 0,-0.00295017 -5.98585e-005,-0.00518631 -0.000183851,-0.00671698l0.0137888 0c-0.000115441,0.00188127 -0.0001753,0.00424568 -0.0001753,0.00707186 0,0.00270646 5.98585e-005,0.00500674 0.0001753,0.00689228l-0.00300148 0zm0.0217415 -0.0394168c-0.000119717,0.00153067 -0.000183851,0.00312119 -0.000183851,0.00477158 0,0.00165038 6.41341e-005,0.00335635 0.000183851,0.00512645l-0.0148492 0c0.000119717,-0.0017701 0.000179576,-0.00347607 0.000179576,-0.00512645 0,-0.0017701 -5.98585e-005,-0.00335635 -0.000179576,-0.00477158l0.0148492 0zm-0.01874 0c-0.000115441,0.00153067 -0.0001753,0.00318105 -0.0001753,0.00494688 0,0.00165038 5.98585e-005,0.00330077 0.0001753,0.00495115l-0.0137888 0c0.000123993,-0.00165038 0.000183851,-0.00330077 0.000183851,-0.00495115 0,-0.00176583 -5.98585e-005,-0.00341621 -0.000183851,-0.00494688l0.0137888 0zm0.0155547 0.0337602l0 -0.00565663 -0.00848281 0 0 0.00565663 0.00848281 0zm-0.0185561 0l0 -0.00565663 -0.00760203 0 0 0.00565663 0.00760203 0zm0.0185561 -0.026342l0 -0.00494688 -0.00848281 0 0 0.00494688 0.00848281 0zm-0.0185561 0l0 -0.00494688 -0.00760203 0 0 0.00494688 0.00760203 0z"/>
  </g>
 </g>
</svg>
