<?xml version="1.0" encoding="UTF-8"?>
<!DOCTYPE svg PUBLIC "-//W3C//DTD SVG 1.1//EN" "http://www.w3.org/Graphics/SVG/1.1/DTD/svg11.dtd">
<!-- Creator: CorelDRAW -->
<svg xmlns="http://www.w3.org/2000/svg" xml:space="preserve" width="21.6569mm" height="4.5221mm" style="shape-rendering:geometricPrecision; text-rendering:geometricPrecision; image-rendering:optimizeQuality; fill-rule:evenodd; clip-rule:evenodd"
viewBox="0 0 1.02434 0.21389"
 xmlns:xlink="http://www.w3.org/1999/xlink">
 <defs>
  <style type="text/css">
   <![CDATA[
    .fil0 {fill:white}
    .fil1 {fill:white;fill-rule:nonzero}
   ]]>
  </style>
 </defs>
 <g id="图层_x0020_18">
  <metadata id="CorelCorpID_0Corel-Layer"/>
  <g id="_159159056">
   <g>
    <g>
     <path id="_159159824" class="fil0" d="M0.18027 0.181315c-0.0191134,0.0191087 -0.0455108,0.0309334 -0.0746705,0.0309334 -0.0583099,0 -0.105599,-0.0472893 -0.105599,-0.105604 0,-0.0291549 0.01182,-0.0555524 0.0309334,-0.0746658l0.149336 0.149336z"/>
     <polygon id="_159160256" class="fil0" points="-0,0.0010453 0.105599,0.106644 -0,0.106644 "/>
    </g>
    <g>
     <polygon id="_159159536" class="fil0" points="0.115399,0.105604 0.220999,0.211203 0.220999,0.105604 "/>
     <path id="_159159800" class="fil0" d="M0.0407337 0.0309334c0.0191087,-0.0191087 0.0455061,-0.0309334 0.0746658,-0.0309334 0.0583099,0 0.105599,0.0472893 0.105599,0.105604 0,0.0291549 -0.01182,0.0555524 -0.0309334,0.0746658l-0.149332 -0.149336z"/>
    </g>
   </g>
   <g>
    <path id="_159158936" class="fil0" d="M0.394169 0.0731475c-0.000208114,-0.00241697 -0.000610154,-0.00474406 -0.00121085,-0.00698602 -0.000595964,-0.00223723 -0.00139058,-0.00438932 -0.0023744,-0.00645628l0 0c-0.000998003,-0.0020575 -0.00214263,-0.00399201 -0.00344335,-0.00580356 -0.00130545,-0.00181154 -0.00276225,-0.00350484 -0.00438932,-0.00506569 -0.00162235,-0.00156086 -0.00336294,-0.00295617 -0.00521705,-0.00419067 -0.00185884,-0.00123923 -0.00383593,-0.00231291 -0.0059218,-0.00321631 -0.00210006,-0.000908136 -0.00428054,-0.00161762 -0.00653669,-0.00211898 -0.00225615,-0.000506096 -0.00459744,-0.000808808 -0.00701913,-0.000903406 -0.00257305,-8.98676e-005 -0.00506569,3.7839e-005 -0.00748266,0.00038785 -0.00240751,0.000350011 -0.00473933,0.000927055 -0.00699075,0.0017264l-4.72987e-006 0c-0.00226088,0.000789889 -0.00438932,0.00177843 -0.00638533,0.00295617 -0.00199601,0.00117774 -0.00387377,0.00255413 -0.00562855,0.00411499l0 -4.72987e-006c-0.00175005,0.00157032 -0.0033251,0.00330145 -0.00472514,0.00518867 -0.00140477,0.00189195 -0.00263454,0.00394944 -0.00370349,0.00617249l4.72987e-006 0c-0.00105476,0.00221358 -0.00189195,0.0045596 -0.00251156,0.00704278 -0.000614884,0.00248318 -0.00101692,0.00510826 -0.00119666,0.00786578 -0.000108787,0.00207641 -4.72987e-005,0.00411026 0.000189195,0.00610154 0.000236494,0.00200074 0.000647993,0.00395417 0.00122031,0.00586031l4.72987e-006 0c0.000586504,0.0019156 0.0013149,0.00375552 0.00218047,0.00551976 0.000865567,0.00175951 0.00187303,0.00344808 0.00301766,0.00507042l0 0c0.00114463,0.00162235 0.00240278,0.00314064 0.00376971,0.0045596 0.00136693,0.00141423 0.00284265,0.00273387 0.00442716,0.0039589 0.00159397,0.00121558 0.00325888,0.00230818 0.00499948,0.00326361 0.00174532,0.000950705 0.00356632,0.00177843 0.00546773,0.00246899l0 0c0.00189195,0.000704751 0.0038312,0.00124869 0.00581774,0.00163181 0.00198655,0.00038785 0.00402512,0.000614884 0.00610154,0.000681102 0.00214263,5.20286e-005 0.00422851,-7.09481e-005 0.00626708,-0.00037366 0.00203858,-0.000297982 0.00402512,-0.000770969 0.00596437,-0.00142369 0.00194398,-0.000647993 0.00380282,-0.00144261 0.00558125,-0.0023744 0.00177843,-0.000931785 0.00347173,-0.0020102 0.00508461,-0.00323523l-4.72987e-006 0c0.00160816,-0.00122504 0.00310753,-0.00256832 0.00449338,-0.00402512 0.00137639,-0.00144734 0.00264873,-0.00301293 0.00380282,-0.0046873 0.0011399,-0.00166492 0.0021379,-0.0034197 0.00299401,-0.00525962 0.000860837,-0.00184465 0.00157978,-0.00377917 0.00214736,-0.00578937l0 0c0.000558125,-0.0020102 0.000945975,-0.00408188 0.00114463,-0.00620086 0.000203385,-0.00209533 0.000227034,-0.00425216 6.62182e-005,-0.00645628zm-0.0855019 0.000799349c9.93273e-005,-0.00259197 0.00038785,-0.00511299 0.000865567,-0.00755834 0.000482447,-0.00245007 0.00115409,-0.00483393 0.00202912,-0.00715157l0 0c0.000865567,-0.00231291 0.00189668,-0.00453122 0.00308388,-0.00663601 0.00119193,-0.00211898 0.00254467,-0.00414337 0.00405823,-0.0060637 0.00151356,-0.00192033 0.00315483,-0.00372241 0.00492853,-0.00538733 0.00175005,-0.001646 0.00363254,-0.00316429 0.00563328,-0.00454068 0.0020102,-0.00139531 0.00411499,-0.00262981 0.00631438,-0.00369876 0.00219466,-0.00106895 0.00448865,-0.00197709 0.00687724,-0.00271968 0.00238859,-0.00074259 0.00483393,-0.00129126 0.0073313,-0.00164127 0.00249737,-0.000350011 0.00506096,-0.000506096 0.00767659,-0.000463528l4.72987e-006 0c0.00252575,4.72987e-005 0.00499002,0.000269603 0.00738806,0.000666912 0.00239332,0.00039258 0.00472041,0.000960164 0.00697656,0.00169802 0.00226088,0.00073786 0.00443189,0.00163181 0.00651304,0.00266765 0.00208114,0.00103584 0.00408188,0.0022325 0.00599275,0.00357105l0 0c0.00189668,0.00132909 0.00367984,0.0027859 0.00534949,0.0043704 0.00167438,0.00158451 0.0032305,0.00329199 0.00466839,0.00511772l0 0c0.00144734,0.00183046 0.00274806,0.00375079 0.00389742,0.00576572 0.00115409,0.00201493 0.00216155,0.00413391 0.00302239,0.00635222 0.000870297,0.00220885 0.00157032,0.00448865 0.00209533,0.00682994 0.000529746,0.00235075 0.000889216,0.00476771 0.00108314,0.0072509l0 4.72987e-006c0.000179735,0.00277644 0.000137166,0.00550084 -0.000127707,0.00816376 -0.000264873,0.00265346 -0.00075678,0.00524543 -0.00147099,0.00776645 -0.000709481,0.00252575 -0.00160816,0.00495218 -0.00268657,0.00726982l0 0c-0.00108314,0.00231764 -0.00235548,0.00453595 -0.00381228,0.00665493 -0.0014568,0.00212371 -0.00306023,0.00410553 -0.00480555,0.00594072 -0.00175005,0.00183992 -0.003642,0.00353795 -0.00567585,0.00508934 -0.00204331,0.00155613 -0.00420013,0.00293725 -0.00645628,0.00413391 -0.00226088,0.00120139 -0.00463055,0.00222777 -0.00709954,0.00306969 -0.00247845,0.000841918 -0.00502786,0.00146626 -0.00764821,0.00187776 -0.00262035,0.000411499 -0.00530692,0.000610154 -0.00805498,0.000591234l-4.72987e-006 0c-0.00267711,-5.20286e-005 -0.00529273,-0.000302712 -0.00784213,-0.00074732 -0.00255886,-0.000449338 -0.00505151,-0.00109733 -0.0074732,-0.00194398 -0.0024217,-0.000846647 -0.00474406,-0.00186357 -0.00696237,-0.00304131 -0.0022325,-0.00118247 -0.00436094,-0.00253048 -0.00638533,-0.00403931l-4.72987e-006 0c-0.00201493,-0.00151356 -0.00389742,-0.00316429 -0.00564747,-0.00493799 -0.00174059,-0.0017737 -0.00334875,-0.00367038 -0.00481028,-0.00569004l0 0c-0.00147099,-0.00204331 -0.00276698,-0.00417648 -0.00388796,-0.00640898l0 0c-0.00111625,-0.00222304 -0.00206222,-0.00454541 -0.00282846,-0.00695291 -0.000780429,-0.00241697 -0.00134328,-0.00490015 -0.00169329,-0.00743536 -0.000345281,-0.00253994 -0.000482447,-0.00513664 -0.000411499,-0.00779483l0 0z"/>
    <path id="_159158864" class="fil1" d="M0.671756 0.0933109c0,0.00950232 -0.0032305,0.017439 -0.00968678,0.0238055 -0.00646101,0.00636641 -0.0144403,0.00954962 -0.0239426,0.00954962 -0.00913339,0 -0.0169519,-0.00325415 -0.0234554,-0.00975773 -0.00650358,-0.00650358 -0.00975773,-0.0143221 -0.00975773,-0.0234554 0,-0.00931785 0.00320685,-0.0172309 0.00962056,-0.0237345 0.00640898,-0.00650358 0.0142748,-0.00975773 0.0235926,-0.00975773 0.00941245,0 0.0173681,0.00320685 0.0238717,0.00962056 0.00650358,0.00640898 0.00975773,0.0143221 0.00975773,0.0237298zm-0.0606133 0.000141896c0,0.0073786 0.00255886,0.0137923 0.00768131,0.0192364 0.00511772,0.00543935 0.0114132,0.00816376 0.0188864,0.00816376 0.00784213,0 0.0144403,-0.00262981 0.0197898,-0.00788943 0.00535422,-0.00525962 0.0080266,-0.0117632 0.0080266,-0.0195107 0,-0.00793673 -0.00262981,-0.0145302 -0.0078847,-0.0197898 -0.00525962,-0.00525962 -0.0119051,-0.00788943 -0.0199317,-0.00788943 -0.0074732,0 -0.0137687,0.00274333 -0.0188864,0.00823471 -0.00512245,0.00548665 -0.00768131,0.0119713 -0.00768131,0.0194445z"/>
    <polygon id="_1591588641" class="fil1" points="0.694014,0.12528 0.68779,0.12528 0.68779,0.0111105 0.694014,0.0111105 "/>
    <path id="_15915886412" class="fil1" d="M0.776891 0.0933109c0,0.00950232 -0.0032305,0.017439 -0.00968678,0.0238055 -0.00646101,0.00636641 -0.0144403,0.00954962 -0.0239426,0.00954962 -0.00913339,0 -0.0169519,-0.00325415 -0.0234554,-0.00975773 -0.00650358,-0.00650358 -0.00975773,-0.0143221 -0.00975773,-0.0234554 0,-0.00931785 0.00320685,-0.0172309 0.00962056,-0.0237345 0.00640898,-0.00650358 0.0142748,-0.00975773 0.0235926,-0.00975773 0.00941245,0 0.0173681,0.00320685 0.0238717,0.00962056 0.00650358,0.00640898 0.00975773,0.0143221 0.00975773,0.0237298zm-0.0606133 0.000141896c0,0.0073786 0.00255886,0.0137923 0.00768131,0.0192364 0.00511772,0.00543935 0.0114132,0.00816376 0.0188864,0.00816376 0.00784213,0 0.0144403,-0.00262981 0.0197898,-0.00788943 0.00535422,-0.00525962 0.0080266,-0.0117632 0.0080266,-0.0195107 0,-0.00793673 -0.00262981,-0.0145302 -0.0078847,-0.0197898 -0.00525962,-0.00525962 -0.0119051,-0.00788943 -0.0199317,-0.00788943 -0.0074732,0 -0.0137687,0.00274333 -0.0188864,0.00823471 -0.00512245,0.00548665 -0.00768131,0.0119713 -0.00768131,0.0194445z"/>
    <path id="_159158864123" class="fil1" d="M0.793895 0.0928995c0,0.00765767 0.00230345,0.0142275 0.00691981,0.0197188 0.00461163,0.00548665 0.010699,0.00823471 0.0182668,0.00823471 0.00774753,0 0.0138822,-0.00276698 0.0184039,-0.00830566 0.00452176,-0.00553395 0.00678264,-0.0123166 0.00678264,-0.0203432 0,-0.00756307 -0.00233183,-0.0138585 -0.00699075,-0.0188864 -0.00465893,-0.00502786 -0.0108645,-0.00754415 -0.0186121,-0.00754415 -0.00710427,0 -0.0130072,0.00271968 -0.0177134,0.00816376 -0.00470622,0.00544408 -0.00705697,0.0117632 -0.00705697,0.0189621zm0.0561814 0.0293347c0,0.0080266 -0.000482447,0.0137497 -0.00145207,0.01716 -0.000969624,0.00341497 -0.00276698,0.00694345 -0.00539679,0.0105902 -0.00262981,0.003642 -0.006111,0.00650358 -0.0104483,0.00857999 -0.00433729,0.00207168 -0.00918068,0.00311226 -0.0145302,0.00311226 -0.00876446,0 -0.016214,-0.00244534 -0.0223487,-0.00733603 -0.00613465,-0.00489069 -0.00920433,-0.0115787 -0.00920433,-0.0200641l0.00622924 0c0,0.00645628 0.00244534,0.0116686 0.00733603,0.015637 0.00488596,0.00396836 0.010699,0.00595018 0.0174343,0.00595018 0.0042427,0 0.00814011,-0.00076151 0.0116922,-0.00228453 0.00355214,-0.00152302 0.00646101,-0.00394471 0.00872189,-0.00726509 0.00225615,-0.00332037 0.00377917,-0.00689616 0.00456433,-0.0107226 0.000785159,-0.0038312 0.00117774,-0.00832931 0.00117774,-0.0134943l0 -0.00788943c-0.00304604,0.0038785 -0.00678264,0.00691981 -0.0112098,0.00913339 -0.00442716,0.00221831 -0.00908609,0.0033251 -0.0139768,0.0033251 -0.00904352,0 -0.0164694,-0.0032778 -0.0222824,-0.00982868 -0.00581301,-0.00655088 -0.00871716,-0.0144356 -0.00871716,-0.0236636 0,-0.00940772 0.00297509,-0.0172971 0.00892527,-0.0236636 0.00595018,-0.00636641 0.0135842,-0.00954962 0.022902,-0.00954962 0.00507515,0 0.00959691,0.00104057 0.0135653,0.00311699 0.00396363,0.00207168 0.0074732,0.00518867 0.0105145,0.00933677l0.000279063 -0.0110679 0.00622451 0 0 0.0608877z"/>
    <polygon id="_1591588641234" class="fil1" points="0.860719,0.0613465 0.867222,0.0613465 0.894438,0.119283 0.918981,0.0613465 0.925348,0.0613465 0.882448,0.162646 0.876081,0.162646 0.891439,0.126387 "/>
    <path id="_159159464" class="fil1" d="M0.49885 0.123331l-0.0657169 -0.0664122 0 0.0662845 -0.0133714 0 0 -0.0955245 0.0657216 0.0657925 0 -0.0643026 0.0133666 0 0 0.0941623zm0.0948907 -0.0939164l-0.0794855 0 -4.25689e-005 0.0116402 0.0337902 0 0 0.0822762 0.0133666 0 0 -0.0822336 0.032376 -4.25689e-005 -4.72987e-006 -0.0116402z"/>
   </g>
   <path id="_159159104" class="fil1" d="M0.311018 0.185898c0,-0.00595018 0.00158924,-0.0106044 0.00478663,-0.0139673 0.00319739,-0.00335821 0.00731711,-0.00504678 0.0123733,-0.00504678 0.00330145,0 0.00629073,0.000794619 0.00894419,0.00236967 0.00264873,0.00158451 0.00467785,0.00378863 0.00607316,0.00661709 0.00139058,0.002819 0.00208587,0.00603059 0.00208587,0.0096111 0,0.00363727 -0.000728401,0.00689143 -0.00219466,0.009753 -0.00147099,0.00287103 -0.00354741,0.00503732 -0.00623397,0.00651304 -0.00269603,0.00148045 -0.00559071,0.00221358 -0.00870297,0.00221358 -0.00337713,0 -0.00639006,-0.000808808 -0.00904352,-0.00244534 -0.00265819,-0.00162708 -0.00466839,-0.00385485 -0.00604005,-0.00667385 -0.00136693,-0.00281427 -0.00204804,-0.00579883 -0.00204804,-0.00894419zm0.00488596 7.5678e-005c0,0.0043231 0.00115882,0.00771442 0.00348119,0.0102023 0.0023271,0.00248791 0.00523597,0.00373187 0.00874081,0.00373187 0.00357105,0 0.00650831,-0.00125342 0.00881175,-0.00376498 0.00230345,-0.00251156 0.00346227,-0.00607316 0.00346227,-0.0106848 0,-0.0029136 -0.000501367,-0.00545827 -0.00148518,-0.00763402 -0.000983814,-0.00218047 -0.00243116,-0.00386431 -0.0043231,-0.00506569 -0.00190141,-0.00119193 -0.00402985,-0.00179262 -0.00639006,-0.00179262 -0.00336294,0 -0.00624816,0.00114936 -0.00866986,0.00346227 -0.00241697,0.00230345 -0.00362781,0.00615357 -0.00362781,0.0115456z"/>
   <path id="_1591591041" class="fil1" d="M0.353615 0.203351l0 -0.0259528 0.0039589 0 0 0.00368457c0.00190614,-0.00285211 0.00466366,-0.00428054 0.00825836,-0.00428054 0.00156559,0 0.00300347,0.000283792 0.00431364,0.000846647 0.0013149,0.000567585 0.00229399,0.00130072 0.00294198,0.00221831 0.000662182,0.000908136 0.00111152,0.00199128 0.00137639,0.00324469 0.000160816,0.000818268 0.000241224,0.00224196 0.000241224,0.00428054l0 0.0159586 -0.00440351 0 0 -0.015793c0,-0.00178316 -0.000165546,-0.00312645 -0.000506096,-0.00402039 -0.000345281,-0.000884486 -0.000955434,-0.00159397 -0.001821,-0.00211898 -0.000875027,-0.000534476 -0.00189195,-0.000799349 -0.00306969,-0.000799349 -0.00187776,0 -0.00348592,0.000600694 -0.00485758,0.00178316 -0.00135747,0.00119193 -0.00203385,0.00344335 -0.00203385,0.00677318l0 0.0141754 -0.00439878 0z"/>
   <path id="_15915910412" class="fil1" d="M0.393842 0.199411l0.000633803 0.00388796c-0.0012345,0.000260143 -0.00234602,0.00039258 -0.00332037,0.00039258 -0.00160343,0 -0.00283792,-0.000250683 -0.00372241,-0.00075678 -0.000875027,-0.000501367 -0.00149464,-0.00116828 -0.00185411,-0.00199601 -0.000354741,-0.000818268 -0.000539206,-0.0025494 -0.000539206,-0.00518867l0 -0.0149322 -0.0032305 0 0 -0.0034197 0.0032305 0 0 -0.00643263 0.00437986 -0.00263927 0 0.0090719 0.00442243 0 0 0.0034197 -0.00442243 0 0 0.0151734c0,0.00126288 7.5678e-005,0.00206222 0.000222304,0.0024217 0.000160816,0.00035947 0.000411499,0.000643263 0.00076151,0.000856107 0.000350011,0.000212844 0.000851377,0.000321631 0.00149937,0.000321631 0.000496637,0 0.00113517,-6.14884e-005 0.00193925,-0.000179735z"/>
   <path id="_159159104123" class="fil1" d="M0.399282 0.190368c0,-0.00480082 0.00133382,-0.00836715 0.00401093,-0.0106753 0.00222777,-0.00192033 0.00494745,-0.00288995 0.00815903,-0.00288995 0.00357105,0 0.00649412,0.00116828 0.008755,0.0035143 0.00226561,0.00233656 0.00339605,0.00556706 0.00339605,0.00968678 0,0.00334402 -0.000501367,0.00597383 -0.0015041,0.0078847 -0.00100273,0.0019156 -0.00245953,0.00340078 -0.0043704,0.00446027 -0.00192033,0.00105949 -0.0040062,0.00158451 -0.00627654,0.00158451 -0.00362781,0 -0.00656506,-0.00115882 -0.00880702,-0.00349538 -0.00224669,-0.0023271 -0.00336294,-0.00568058 -0.00336294,-0.0100699zm0.00452176 0c0,0.00332983 0.000723671,0.00581774 0.00217574,0.00746847 0.00145207,0.00166019 0.00328253,0.00248791 0.00547246,0.00248791 0.00218993,0 0.0040062,-0.000837188 0.00545827,-0.00249737 0.00144261,-0.00166019 0.00217101,-0.0041954 0.00217101,-0.00760091 0,-0.00321158 -0.000728401,-0.00564747 -0.00218993,-0.0072982 -0.0014568,-0.00165073 -0.00326834,-0.00247845 -0.00543935,-0.00247845 -0.00218993,0 -0.00402039,0.000827728 -0.00547246,0.00246899 -0.00145207,0.001646 -0.00217574,0.00412918 -0.00217574,0.00744955z"/>
   <polygon id="_1591591041234" class="fil1" points="0.431445,0.203351 0.431445,0.167518 0.435844,0.167518 0.435844,0.203351 "/>
   <path id="_15915910412345" class="fil1" d="M0.443804 0.190368c0,-0.00480082 0.00133382,-0.00836715 0.00401093,-0.0106753 0.00222777,-0.00192033 0.00494745,-0.00288995 0.00815903,-0.00288995 0.00357105,0 0.00649412,0.00116828 0.008755,0.0035143 0.00226561,0.00233656 0.00339605,0.00556706 0.00339605,0.00968678 0,0.00334402 -0.000501367,0.00597383 -0.0015041,0.0078847 -0.00100273,0.0019156 -0.00245953,0.00340078 -0.0043704,0.00446027 -0.00192033,0.00105949 -0.0040062,0.00158451 -0.00627654,0.00158451 -0.00362781,0 -0.00656506,-0.00115882 -0.00880702,-0.00349538 -0.00224669,-0.0023271 -0.00336294,-0.00568058 -0.00336294,-0.0100699zm0.00452176 0c0,0.00332983 0.000723671,0.00581774 0.00217574,0.00746847 0.00145207,0.00166019 0.00328253,0.00248791 0.00547246,0.00248791 0.00218993,0 0.0040062,-0.000837188 0.00545827,-0.00249737 0.00144261,-0.00166019 0.00217101,-0.0041954 0.00217101,-0.00760091 0,-0.00321158 -0.000728401,-0.00564747 -0.00218993,-0.0072982 -0.0014568,-0.00165073 -0.00326834,-0.00247845 -0.00543935,-0.00247845 -0.00218993,0 -0.00402039,0.000827728 -0.00547246,0.00246899 -0.00145207,0.001646 -0.00217574,0.00412918 -0.00217574,0.00744955z"/>
   <path id="_159159104123456" class="fil1" d="M0.475258 0.205504l0.00428054 0.000633803c0.000175005,0.00131963 0.000676372,0.0022798 0.00148518,0.00288522 0.0010926,0.000808808 0.00258724,0.00122031 0.00447446,0.00122031 0.00204331,0 0.00360889,-0.000411499 0.00472041,-0.00122031 0.00111152,-0.000813538 0.00185411,-0.00195817 0.00224196,-0.0034197 0.000236494,-0.000898676 0.000335821,-0.00277644 0.000316902,-0.00564747 -0.0019156,0.00226088 -0.00430891,0.00339605 -0.00717995,0.00339605 -0.00357105,0 -0.0063333,-0.00128653 -0.00828674,-0.00386431 -0.00194871,-0.00256832 -0.00293725,-0.00566166 -0.00293725,-0.00926109 0,-0.00247372 0.000454068,-0.00476298 0.00134328,-0.00685359 0.000903406,-0.00209533 0.00220412,-0.00371295 0.00390688,-0.00485758 0.00170275,-0.00113517 0.00370349,-0.00171221 0.00599748,-0.00171221 0.00306023,0 0.00559071,0.00124396 0.00757726,0.00372241l0 -0.00312645 0.00406296 0 0 0.0224338c0,0.00403458 -0.000420959,0.00690562 -0.0012345,0.00858945 -0.000827728,0.00168856 -0.00212844,0.00302239 -0.00391634,0.00399674 -0.00178316,0.000979084 -0.00397782,0.00147099 -0.00658871,0.00147099 -0.00309334,0 -0.00560017,-0.000700021 -0.00750158,-0.00209533 -0.00191087,-0.00139531 -0.00282846,-0.00348592 -0.00276225,-0.00629073zm0.00363727 -0.0155944c0,0.00340551 0.000676372,0.00589342 0.00203858,0.00745428 0.00135274,0.00156559 0.00304604,0.00234129 0.00507988,0.00234129 0.00201966,0 0.00371295,-0.000775699 0.00507988,-0.0023271 0.00136693,-0.00156086 0.00205277,-0.00399674 0.00205277,-0.00732657 0,-0.00317848 -0.000700021,-0.00557179 -0.00210952,-0.00717995 -0.0014095,-0.00161289 -0.00311226,-0.0024217 -0.0050988,-0.0024217 -0.00195344,0 -0.00361362,0.000794619 -0.00499002,0.00238859 -0.00136693,0.00158451 -0.00205277,0.00394471 -0.00205277,0.00707116z"/>
   <path id="_1591591041234567" class="fil1" d="M0.506489 0.213346l-0.000491907 -0.00412918c0.000969624,0.000260143 0.00180208,0.00039258 0.00252102,0.00039258 0.000974354,0 0.00175951,-0.000165546 0.00234129,-0.000491907 0.000595964,-0.000326361 0.00106895,-0.000775699 0.00144734,-0.00136693 0.000283792,-0.000435148 0.000723671,-0.00152775 0.00134328,-0.00327307 8.04079e-005,-0.000250683 0.000212844,-0.000600694 0.00038785,-0.00107368l-0.00984287 -0.0260048 0.00473933 0 0.00540625 0.0150221c0.000690562,0.00191087 0.00132436,0.00391634 0.00187776,0.0060164 0.000506096,-0.00201966 0.00110679,-0.00398728 0.00181154,-0.00591234l0.00554341 -0.0151261 0.00439878 0 -0.00987125 0.0263927c-0.00105949,0.00285684 -0.00188249,0.00481501 -0.00246899,0.00589342 -0.000780429,0.00145207 -0.00167438,0.00251156 -0.00268657,0.00318793 -0.00101692,0.000671642 -0.00221831,0.00101692 -0.00361835,0.00101692 -0.000851377,0 -0.00179262,-0.000184465 -0.00283792,-0.000543935z"/>
   <path id="_15915910412345678" class="fil1" d="M0.545984 0.203351l0 -0.0358335 0.0134518 0c0.00273387,0 0.00492853,0.00036893 0.00657925,0.00108787 0.00166019,0.000723671 0.00295617,0.00183992 0.00388796,0.00335348 0.000936515,0.00149937 0.0014095,0.00307915 0.0014095,0.00472987 0,0.00152775 -0.000416229,0.00297036 -0.00124869,0.00431837 -0.000827728,0.00135274 -0.00208587,0.00244534 -0.00376498,0.00328253 0.00217101,0.000633803 0.0038312,0.00171694 0.00499948,0.00324469 0.00116828,0.00153248 0.00175005,0.00334402 0.00175005,0.0054299 0,0.00167911 -0.00035947,0.00323523 -0.00106895,0.00468258 -0.000704751,0.00144261 -0.00158451,0.0025494 -0.00262508,0.00333456 -0.0010453,0.000785159 -0.00235548,0.00136693 -0.00392107,0.00176897 -0.00157032,0.000402039 -0.00349538,0.000600694 -0.00578464,0.000600694l-0.0136646 0zm0.00474879 -0.0207736l0.00775226 0c0.0020906,0 0.00360416,-0.000141896 0.00452176,-0.000416229 0.00120139,-0.00035947 0.00210952,-0.000950705 0.00271968,-0.00178789 0.000605424,-0.000832458 0.000917596,-0.00187303 0.000917596,-0.00312645 0,-0.00118247 -0.000283792,-0.00223723 -0.000851377,-0.00313591 -0.000577045,-0.000908136 -0.00139531,-0.00152775 -0.00244534,-0.00186357 -0.00105949,-0.000331091 -0.00288049,-0.000496637 -0.00545827,-0.000496637l-0.0071563 0 0 0.0108267zm0 0.0165451l0.00891581 0c0.00153721,0 0.00261562,-6.14884e-005 0.0032305,-0.000170275 0.0010926,-0.000198655 0.00200074,-0.000525016 0.0027386,-0.000983814 0.00073313,-0.000449338 0.00133382,-0.00111625 0.00180681,-0.00198182 0.000468258,-0.000879757 0.000709481,-0.00187776 0.000709481,-0.00302239 0,-0.00133382 -0.000340551,-0.00249264 -0.00102638,-0.00348592 -0.000681102,-0.000983814 -0.00163181,-0.00167911 -0.00285211,-0.00207641 -0.00121085,-0.00039258 -0.0029609,-0.000595964 -0.0052407,-0.000595964l-0.00828201 0 0 0.0123166z"/>
   <polygon id="_159159104123456789" class="fil1" points="0.581699,0.203351 0.581699,0.167518 0.586098,0.167518 0.586098,0.203351 "/>
   <path id="_15915910412345678910" class="fil1" d="M0.594058 0.190368c0,-0.00480082 0.00133382,-0.00836715 0.00401093,-0.0106753 0.00222777,-0.00192033 0.00494745,-0.00288995 0.00815903,-0.00288995 0.00357105,0 0.00649412,0.00116828 0.008755,0.0035143 0.00226561,0.00233656 0.00339605,0.00556706 0.00339605,0.00968678 0,0.00334402 -0.000501367,0.00597383 -0.0015041,0.0078847 -0.00100273,0.0019156 -0.00245953,0.00340078 -0.0043704,0.00446027 -0.00192033,0.00105949 -0.0040062,0.00158451 -0.00627654,0.00158451 -0.00362781,0 -0.00656506,-0.00115882 -0.00880702,-0.00349538 -0.00224669,-0.0023271 -0.00336294,-0.00568058 -0.00336294,-0.0100699zm0.00452176 0c0,0.00332983 0.000723671,0.00581774 0.00217574,0.00746847 0.00145207,0.00166019 0.00328253,0.00248791 0.00547246,0.00248791 0.00218993,0 0.0040062,-0.000837188 0.00545827,-0.00249737 0.00144261,-0.00166019 0.00217101,-0.0041954 0.00217101,-0.00760091 0,-0.00321158 -0.000728401,-0.00564747 -0.00218993,-0.0072982 -0.0014568,-0.00165073 -0.00326834,-0.00247845 -0.00543935,-0.00247845 -0.00218993,0 -0.00402039,0.000827728 -0.00547246,0.00246899 -0.00145207,0.001646 -0.00217574,0.00412918 -0.00217574,0.00744955z"/>
   <path id="_1591591041234567891011" class="fil1" d="M0.643258 0.19384l0.0043231 0.000567585c-0.000468258,0.00297982 -0.00167911,0.00531638 -0.00363254,0.00700021 -0.00194398,0.00168384 -0.00433729,0.00252575 -0.00717049,0.00252575 -0.00354741,0 -0.00640898,-0.00115882 -0.00856107,-0.00347646 -0.00216155,-0.00231764 -0.00324469,-0.00564747 -0.00324469,-0.00998476 0,-0.00280482 0.000468258,-0.00525962 0.00139058,-0.00735968 0.000936515,-0.00210479 0.00234602,-0.00367984 0.00424743,-0.00472987 0.00189195,-0.00105003 0.00396363,-0.00157978 0.0061914,-0.00157978 0.002819,0 0.00513191,0.000718941 0.00691508,0.00214736 0.00179262,0.00142369 0.00294671,0.00344335 0.00345281,0.00607316l-0.00428054 0.000657452c-0.000406769,-0.00174059 -0.00112571,-0.00305077 -0.00215682,-0.00393525 -0.00103584,-0.000879757 -0.00228926,-0.00131963 -0.00375552,-0.00131963 -0.00221831,0 -0.00402039,0.000794619 -0.00540625,0.00238386 -0.00138585,0.00158924 -0.00207641,0.00409607 -0.00207641,0.00753469 0,0.00348592 0.000666912,0.00602586 0.0020102,0.00761037 0.00133382,0.00157505 0.00307915,0.00236967 0.00523124,0.00236967 0.0017264,0 0.00315956,-0.000534476 0.00431837,-0.00159397 0.00116355,-0.00105949 0.00189668,-0.00268657 0.00220412,-0.00489069z"/>
   <polygon id="_159159104123456789101112" class="fil1" points="0.654151,0.203351 0.654151,0.167518 0.658555,0.167518 0.658555,0.187951 0.66897,0.177399 0.67466,0.177399 0.664736,0.187024 0.675667,0.203351 0.670237,0.203351 0.661657,0.190079 0.658555,0.193064 0.658555,0.203351 "/>
   <path id="_15915910412345678910111213" class="fil1" d="M0.698881 0.19384l0.0043231 0.000567585c-0.000468258,0.00297982 -0.00167911,0.00531638 -0.00363254,0.00700021 -0.00194398,0.00168384 -0.00433729,0.00252575 -0.00717049,0.00252575 -0.00354741,0 -0.00640898,-0.00115882 -0.00856107,-0.00347646 -0.00216155,-0.00231764 -0.00324469,-0.00564747 -0.00324469,-0.00998476 0,-0.00280482 0.000468258,-0.00525962 0.00139058,-0.00735968 0.000936515,-0.00210479 0.00234602,-0.00367984 0.00424743,-0.00472987 0.00189195,-0.00105003 0.00396363,-0.00157978 0.0061914,-0.00157978 0.002819,0 0.00513191,0.000718941 0.00691508,0.00214736 0.00179262,0.00142369 0.00294671,0.00344335 0.00345281,0.00607316l-0.00428054 0.000657452c-0.000406769,-0.00174059 -0.00112571,-0.00305077 -0.00215682,-0.00393525 -0.00103584,-0.000879757 -0.00228926,-0.00131963 -0.00375552,-0.00131963 -0.00221831,0 -0.00402039,0.000794619 -0.00540625,0.00238386 -0.00138585,0.00158924 -0.00207641,0.00409607 -0.00207641,0.00753469 0,0.00348592 0.000666912,0.00602586 0.0020102,0.00761037 0.00133382,0.00157505 0.00307915,0.00236967 0.00523124,0.00236967 0.0017264,0 0.00315956,-0.000534476 0.00431837,-0.00159397 0.00116355,-0.00105949 0.00189668,-0.00268657 0.00220412,-0.00489069z"/>
   <path id="_1591591041234567891011121314" class="fil1" d="M0.709755 0.203351l0 -0.0358335 0.00439878 0 0 0.0128558c0.00205277,-0.0023744 0.00464474,-0.00357105 0.00777591,-0.00357105 0.00192033,0 0.00358524,0.00038785 0.00500421,0.00114463 0.00141896,0.00075205 0.00243588,0.00180208 0.00304604,0.00313591 0.000610154,0.00133855 0.000917596,0.00328253 0.000917596,0.00581774l0 0.0164505 -0.00440351 0 0 -0.0164505c0,-0.00219466 -0.000477717,-0.00379809 -0.00142842,-0.00479609 -0.000950705,-0.00100273 -0.00230345,-0.00151356 -0.00404404,-0.00151356 -0.00130545,0 -0.00253048,0.000345281 -0.00367984,0.00101692 -0.00115409,0.000676372 -0.00196763,0.00159397 -0.0024548,0.00275752 -0.000491907,0.00114936 -0.00073313,0.00275279 -0.00073313,0.00478663l0 0.0141991 -0.00439878 0z"/>
   <path id="_159159104123456789101112131415" class="fil1" d="M0.757314 0.200149c-0.00163654,0.00138112 -0.00320212,0.00236021 -0.00470622,0.00293725 -0.00150883,0.000562855 -0.00312645,0.000846647 -0.00485285,0.000846647 -0.00285684,0 -0.00504205,-0.000690562 -0.00657452,-0.00208114 -0.00152775,-0.00139531 -0.00229399,-0.00318321 -0.00229399,-0.00534003 0,-0.00127707 0.000283792,-0.00243588 0.000865567,-0.00349065 0.000577045,-0.00105003 0.00133382,-0.00189195 0.00227034,-0.00252575 0.000941245,-0.000633803 0.00199601,-0.00111625 0.00316902,-0.00144261 0.000860837,-0.000227034 0.00216155,-0.000449338 0.00390688,-0.000662182 0.00355214,-0.000425689 0.00617249,-0.000922325 0.00784686,-0.00151829 1.89195e-005,-0.000600694 2.83792e-005,-0.000983814 2.83792e-005,-0.0011399 0,-0.00179262 -0.000416229,-0.00306496 -0.00125342,-0.00378863 -0.00111625,-0.00100273 -0.00279536,-0.00149464 -0.00500421,-0.00149464 -0.00207168,0 -0.0035947,0.00035947 -0.00458798,0.00108787 -0.000983814,0.000723671 -0.00171221,0.0020102 -0.0021852,0.00385012l-0.00429946 -0.000591234c0.00039258,-0.00183519 0.00103584,-0.00332983 0.00192979,-0.00445554 0.000889216,-0.00113517 0.00219466,-0.0020102 0.00388796,-0.00261562 0.00169329,-0.000610154 0.00365146,-0.000922325 0.00588869,-0.000922325 0.00221831,0 0.00401093,0.000269603 0.00539679,0.000785159 0.00138585,0.000525016 0.00240278,0.00117774 0.00306023,0.00197236 0.000652723,0.000789889 0.00110206,0.00178316 0.00137166,0.00299401 0.000141896,0.00075205 0.000217574,0.00210006 0.000217574,0.0040535l0 0.00586504c0,0.00409607 8.98676e-005,0.00668331 0.000283792,0.00775699 0.000179735,0.00108787 0.000558125,0.00212844 0.00110679,0.00312172l-0.00459744 0c-0.000449338,-0.000908136 -0.00074732,-0.00197709 -0.000875027,-0.00320212zm-0.00036893 -0.00982868c-0.0015987,0.000657452 -0.00399201,0.00121085 -0.00717995,0.00166965 -0.00181154,0.000255413 -0.00309807,0.000548665 -0.00384066,0.000875027 -0.00074732,0.000326361 -0.00133382,0.000799349 -0.00173113,0.00143315 -0.000411499,0.000629073 -0.000619613,0.00131963 -0.000619613,0.00208587 0,0.00117774 0.000449338,0.00215209 0.00133382,0.00293725 0.000884486,0.000775699 0.0021852,0.00116828 0.00389742,0.00116828 0.00169329,0 0.00320212,-0.00036893 0.00452176,-0.00111152 0.00131963,-0.00074259 0.00229399,-0.00175951 0.0029136,-0.00304131 0.000472987,-0.000993273 0.000704751,-0.00246426 0.000704751,-0.00439878l0 -0.00161762z"/>
   <path id="_15915910412345678910111213141516" class="fil1" d="M0.771017 0.172584l0 -0.00506569 0.00440351 0 0 0.00506569 -0.00440351 0zm0 0.0307678l0 -0.0259528 0.00440351 0 0 0.0259528 -0.00440351 0z"/>
   <path id="_1591591041234567891011121314151617" class="fil1" d="M0.784899 0.203351l0 -0.0259528 0.0039589 0 0 0.00368457c0.00190614,-0.00285211 0.00466366,-0.00428054 0.00825836,-0.00428054 0.00156559,0 0.00300347,0.000283792 0.00431364,0.000846647 0.0013149,0.000567585 0.00229399,0.00130072 0.00294198,0.00221831 0.000662182,0.000908136 0.00111152,0.00199128 0.00137639,0.00324469 0.000160816,0.000818268 0.000241224,0.00224196 0.000241224,0.00428054l0 0.0159586 -0.00440351 0 0 -0.015793c0,-0.00178316 -0.000165546,-0.00312645 -0.000506096,-0.00402039 -0.000345281,-0.000884486 -0.000955434,-0.00159397 -0.001821,-0.00211898 -0.000875027,-0.000534476 -0.00189195,-0.000799349 -0.00306969,-0.000799349 -0.00187776,0 -0.00348592,0.000600694 -0.00485758,0.00178316 -0.00135747,0.00119193 -0.00203385,0.00344335 -0.00203385,0.00677318l0 0.0141754 -0.00439878 0z"/>
   <path id="_159159104123456789101112131415161718" class="fil1" d="M0.84441 0.194994l0.00454541 0.000558125c-0.000718941,0.00265819 -0.00204331,0.00472041 -0.00397782,0.0061914 -0.00194398,0.0014568 -0.00442243,0.00218993 -0.00743536,0.00218993 -0.00379336,0 -0.00680629,-0.00116355 -0.0090246,-0.00350011 -0.00222777,-0.00233656 -0.00333929,-0.00561436 -0.00333929,-0.00983814 0,-0.0043704 0.00112571,-0.00775699 0.0033724,-0.0101692 0.00225142,-0.00241224 0.00516029,-0.00362308 0.00875027,-0.00362308 0.00347173,0 0.00630492,0.0011872 0.00849958,0.00354741 0.00220412,0.00236021 0.00330618,0.00569004 0.00330618,0.00997057 0,0.000264873 -9.45975e-006,0.000657452 -2.83792e-005,0.00117774l-0.0193546 0c0.000160816,0.00285211 0.000969624,0.00503732 0.0024217,0.00654615 0.00145207,0.00151829 0.00325415,0.0022798 0.00542044,0.0022798 0.00161289,0 0.00298928,-0.000425689 0.00412918,-0.00127707 0.00114463,-0.000841918 0.00204804,-0.00219466 0.00271495,-0.0040535zm-0.014445 -0.00711846l0.0144923 0c-0.000189195,-0.00217574 -0.00074732,-0.00382174 -0.00166019,-0.00490488 -0.00140004,-0.00169329 -0.00322104,-0.00254467 -0.00544881,-0.00254467 -0.00201493,0 -0.00371768,0.000676372 -0.00509407,0.00202912 -0.00137639,0.00134801 -0.0021379,0.00315956 -0.00228926,0.00542044z"/>
   <path id="_15915910412345678910111213141516171819" class="fil1" d="M0.854333 0.203351l0.0094834 -0.0134896 -0.00877392 -0.0124632 0.00549611 0 0.00398728 0.00608262c0.00074259,0.00115882 0.00135274,0.00212371 0.00180208,0.00290887 0.000718941,-0.00107368 0.00137639,-0.00202439 0.00198655,-0.00286157l0.0043704 -0.00612992 0.00525489 0 -0.00896784 0.012222 0.00965367 0.0137308 -0.00539679 0 -0.00533057 -0.00806916 -0.00141896 -0.00217574 -0.00681575 0.0102449 -0.00533057 0z"/>
   <path id="_1591591041234567891011121314151617181920" class="fil1" d="M0.885078 0.213294l0 -0.035895 0.0040062 0 0 0.00336767c0.000941245,-0.0013149 0.0020102,-0.00230818 0.00320212,-0.00297036 0.0011872,-0.000657452 0.00262981,-0.000993273 0.0043231,-0.000993273 0.00221831,0 0.00417175,0.000577045 0.00586504,0.00171221 0.00170275,0.00114463 0.00297982,0.00275279 0.00383593,0.0048292 0.000870297,0.00208114 0.00130545,0.00435621 0.00130545,0.00683467 0,0.00265346 -0.000477717,0.00504678 -0.00143788,0.00717522 -0.000950705,0.00212844 -0.00233656,0.00375552 -0.00415283,0.00488596 -0.001821,0.00113044 -0.00373187,0.00169329 -0.00573261,0.00169329 -0.00146626,0 -0.00277644,-0.000307442 -0.00394471,-0.000922325 -0.00116828,-0.000619613 -0.00211898,-0.00140477 -0.00287103,-0.00234602l0 0.0126288 -0.00439878 0zm0.00398255 -0.0227743c0,0.00333929 0.000676372,0.00580828 0.00202439,0.00741171 0.00135274,0.00158924 0.00299874,0.00239332 0.00491434,0.00239332 0.00195344,0 0.00363254,-0.000827728 0.00502313,-0.00248791 0.00139531,-0.00165073 0.00209533,-0.00421432 0.00209533,-0.00768131 0,-0.00331564 -0.000685832,-0.00578464 -0.00204331,-0.00743536 -0.0013622,-0.00164127 -0.00298928,-0.00246899 -0.00487177,-0.00246899 -0.00187776,0 -0.00353795,0.000875027 -0.00498056,0.00262981 -0.00144261,0.00175005 -0.00216155,0.00430419 -0.00216155,0.00763875z"/>
   <polygon id="_159159104123456789101112131415161718192021" class="fil1" points="0.9156,0.203351 0.9156,0.167518 0.919998,0.167518 0.919998,0.203351 "/>
   <path id="_15915910412345678910111213141516171819202122" class="fil1" d="M0.927959 0.190368c0,-0.00480082 0.00133382,-0.00836715 0.00401093,-0.0106753 0.00222777,-0.00192033 0.00494745,-0.00288995 0.00815903,-0.00288995 0.00357105,0 0.00649412,0.00116828 0.008755,0.0035143 0.00226561,0.00233656 0.00339605,0.00556706 0.00339605,0.00968678 0,0.00334402 -0.000501367,0.00597383 -0.0015041,0.0078847 -0.00100273,0.0019156 -0.00245953,0.00340078 -0.0043704,0.00446027 -0.00192033,0.00105949 -0.0040062,0.00158451 -0.00627654,0.00158451 -0.00362781,0 -0.00656506,-0.00115882 -0.00880702,-0.00349538 -0.00224669,-0.0023271 -0.00336294,-0.00568058 -0.00336294,-0.0100699zm0.00452176 0c0,0.00332983 0.000723671,0.00581774 0.00217574,0.00746847 0.00145207,0.00166019 0.00328253,0.00248791 0.00547246,0.00248791 0.00218993,0 0.0040062,-0.000837188 0.00545827,-0.00249737 0.00144261,-0.00166019 0.00217101,-0.0041954 0.00217101,-0.00760091 0,-0.00321158 -0.000728401,-0.00564747 -0.00218993,-0.0072982 -0.0014568,-0.00165073 -0.00326834,-0.00247845 -0.00543935,-0.00247845 -0.00218993,0 -0.00402039,0.000827728 -0.00547246,0.00246899 -0.00145207,0.001646 -0.00217574,0.00412918 -0.00217574,0.00744955z"/>
   <path id="_1591591041234567891011121314151617181920212223" class="fil1" d="M0.960174 0.203351l0 -0.0259528 0.00395417 0 0 0.0039258c0.00100746,-0.00183519 0.00194398,-0.00305077 0.00280482,-0.00363727 0.000851377,-0.000581774 0.00179262,-0.000884486 0.002819,-0.000884486 0.00148518,0 0.00298455,0.000477717 0.00452176,0.00141896l-0.00151829 0.00409134c-0.00106895,-0.000643263 -0.00214736,-0.000960164 -0.00322104,-0.000960164 -0.000969624,0 -0.00182573,0.000293252 -0.0025967,0.000865567 -0.00076624,0.000586504 -0.00131018,0.00138585 -0.00163181,0.00241224 -0.000491907,0.00156086 -0.00073786,0.00326834 -0.00073786,0.00513191l0 0.0135889 -0.00439405 0z"/>
   <path id="_159159104123456789101112131415161718192021222324" class="fil1" d="M0.997436 0.194994l0.00454541 0.000558125c-0.000718941,0.00265819 -0.00204331,0.00472041 -0.00397782,0.0061914 -0.00194398,0.0014568 -0.00442243,0.00218993 -0.00743536,0.00218993 -0.00379336,0 -0.00680629,-0.00116355 -0.0090246,-0.00350011 -0.00222777,-0.00233656 -0.00333929,-0.00561436 -0.00333929,-0.00983814 0,-0.0043704 0.00112571,-0.00775699 0.0033724,-0.0101692 0.00225142,-0.00241224 0.00516029,-0.00362308 0.00875027,-0.00362308 0.00347173,0 0.00630492,0.0011872 0.00849958,0.00354741 0.00220412,0.00236021 0.00330618,0.00569004 0.00330618,0.00997057 0,0.000264873 -9.45975e-006,0.000657452 -2.83792e-005,0.00117774l-0.0193546 0c0.000160816,0.00285211 0.000969624,0.00503732 0.0024217,0.00654615 0.00145207,0.00151829 0.00325415,0.0022798 0.00542044,0.0022798 0.00161289,0 0.00298928,-0.000425689 0.00412918,-0.00127707 0.00114463,-0.000841918 0.00204804,-0.00219466 0.00271495,-0.0040535zm-0.014445 -0.00711846l0.0144923 0c-0.000189195,-0.00217574 -0.00074732,-0.00382174 -0.00166019,-0.00490488 -0.00140004,-0.00169329 -0.00322104,-0.00254467 -0.00544881,-0.00254467 -0.00201493,0 -0.00371768,0.000676372 -0.00509407,0.00202912 -0.00137639,0.00134801 -0.0021379,0.00315956 -0.00228926,0.00542044z"/>
   <path id="_15915910412345678910111213141516171819202122232425" class="fil1" d="M1.01024 0.203351l0 -0.0259528 0.00395417 0 0 0.0039258c0.00100746,-0.00183519 0.00194398,-0.00305077 0.00280482,-0.00363727 0.000851377,-0.000581774 0.00179262,-0.000884486 0.002819,-0.000884486 0.00148518,0 0.00298455,0.000477717 0.00452176,0.00141896l-0.00151829 0.00409134c-0.00106895,-0.000643263 -0.00214736,-0.000960164 -0.00322104,-0.000960164 -0.000969624,0 -0.00182573,0.000293252 -0.0025967,0.000865567 -0.00076624,0.000586504 -0.00131018,0.00138585 -0.00163181,0.00241224 -0.000491907,0.00156086 -0.00073786,0.00326834 -0.00073786,0.00513191l0 0.0135889 -0.00439405 0z"/>
  </g>
 </g>
</svg>
